<?xml version="1.0" encoding="utf-8"?>
<!-- Generator: Adobe Illustrator 27.4.0, SVG Export Plug-In . SVG Version: 6.00 Build 0)  -->
<svg version="1.1" xmlns="http://www.w3.org/2000/svg" xmlns:xlink="http://www.w3.org/1999/xlink" x="0px" y="0px"
	 viewBox="0 0 1000 300" style="enable-background:new 0 0 1000 300;" xml:space="preserve">
<style type="text/css">
	.st0{fill:#F06400;}
	.st1{fill-rule:evenodd;clip-rule:evenodd;fill:#F06400;}
	.st2{fill:#FFFFFF;stroke:#FFFFFF;stroke-width:13.5214;stroke-miterlimit:3.8637;}
	.st3{fill:#005AAA;}
	.st4{fill:#FFFFFF;}
	.st5{fill-rule:evenodd;clip-rule:evenodd;fill:#FFFFFF;}
</style>
<g id="Zusatz">
	<g>
		<path class="st0" d="M500.1,249.6h-18.6v6.6h3.6c2.2,0,2.9,1,2.9,3.6v18.2c0,2.7-0.7,3.6-2.9,3.6h-3.6v6.6h26.1v-6.6H503
			c-2.1,0-2.8-1-2.8-3.6v-9.6c0-8.3,3.1-14.1,7.5-14.1c-1.6,2.1-2.1,3.2-2.1,4.7c0,3.3,2.5,5.8,5.8,5.8c4.1,0,6.7-2.8,6.7-7.5
			c0-5.1-3.3-8.7-8-8.7c-4.1,0-6.4,1.4-10.3,6.6L500.1,249.6L500.1,249.6z"/>
		<path class="st1" d="M379.1,234.2v6.6h4.2c3.2,0,4.4,1.1,4.4,3.8v33.2c0,2.8-1.1,3.8-4.4,3.8h-4.2v6.6H416
			c12.2,0,19.9-5.8,19.9-14.9c0-7.2-4.1-11.7-12.4-13.5c7.8-2.8,10.9-6.2,10.9-12c0-8.9-6.5-13.7-18.6-13.7H379.1L379.1,234.2z
			 M401.1,257.1v-15.9h9.1c7.5,0,10.2,2.1,10.2,7.9c0,5.6-3.1,8-10.4,8H401.1L401.1,257.1z M401.1,281.6V264h10.5
			c6.4,0,9.7,3,9.7,8.7c0,6.2-3.2,8.9-10.4,8.9H401.1L401.1,281.6z"/>
		<path class="st0" d="M588.5,249.6h-17.6v6.6h3.2c2.2,0,2.9,1,2.9,3.6v18.2c0,2.7-0.7,3.6-2.9,3.6h-3.2v6.6H594v-6.6h-2
			c-2.2,0-2.9-1-2.9-3.6v-12.2c0-6.7,2.3-9.7,7.6-9.7c4.2,0,5.8,2.2,5.8,7.8v14.2c0,2.7-0.7,3.6-2.9,3.6h-2.2v6.6h23.5v-6.6h-3.4
			c-2.3,0-3-1-3-3.6v-18.2c0-7.2-4.8-11.5-12.8-11.5c-5.5,0-8.8,1.7-13.5,7.1L588.5,249.6L588.5,249.6z"/>
		<g>
			<path class="st0" d="M451.6,270.8c0,5.8,2.3,11.5,9.3,11.5c3.6,0,8-2.2,8.8-7.1h9.6c-1.3,9.9-11,14.2-19.9,14.2
				c-14.1,0-20.9-7.8-20.9-20.5c0-12.8,9.1-20.5,20.9-20.5c13.5,0,20.9,9.6,20.9,22.4H451.6z M467,264.2v-2.1c0-4.2-3.7-7.1-7.6-7.1
				c-4,0-7.6,2.9-7.6,7.1v2.1H467z"/>
		</g>
		<g>
			<path class="st0" d="M533.6,278c0,2.4,0.6,3.7,3.1,3.7h3.6v6.5h-25.5v-6.5h3.7c2.5,0,3.1-1.3,3.1-3.7v-33.5
				c0-2.4-0.3-3.7-2.9-3.7h-4v-6.6h18.8V278z"/>
		</g>
		<g>
			<path class="st0" d="M561.6,278c0,2.4,0.6,3.7,3.1,3.7h3.6v6.5h-25.5v-6.5h3.7c2.5,0,3.1-1.3,3.1-3.7v-17.7
				c0-2.4-0.6-3.7-3.1-3.7h-3.7v-6.9h18.8V278z M561.6,239.4c0,3.9-3,6.9-6.9,6.9c-3.9,0-6.9-3-6.9-6.9c0-3.9,3-6.9,6.9-6.9
				C558.6,232.6,561.6,235.6,561.6,239.4z"/>
		</g>
	</g>
	<g>
		<g>
			<rect x="142.4" y="259.4" class="st0" width="200.7" height="3.4"/>
		</g>
		<g>
			<rect x="656.9" y="259.4" class="st0" width="200.7" height="3.4"/>
		</g>
	</g>
</g>
<g id="Verbandslogo">
	<g>
		<polygon class="st2" points="25,14.3 975,14.3 975,192 25,192 25,14.3 		"/>
		<polygon class="st3" points="25,14.3 975,14.3 975,153.8 25,153.8 25,14.3 		"/>
		<polygon class="st0" points="25,164.8 975,164.8 975,192 25,192 25,164.8 		"/>
		<g>
			<path class="st4" d="M205.8,48.7h-8.9l-1.6,5.1c-6-5.1-13-7.5-22-7.5c-18.8,0-30.6,9.7-30.6,25.2c0,5.6,1.5,10.2,4.5,13.8
				c3.3,3.8,7.8,6,17.7,8.2l3.8,0.9l3.7,0.9l3.8,0.9c4.3,0.9,7.7,1.8,10.1,2.7c3.7,1.2,5.4,3.4,5.4,6.9c0,6.1-5.6,10.1-14.3,10.1
				c-8.1,0-16.3-3.5-20-8.5c-1.9-2.5-2.9-5.2-4.4-11.3h-10.6v27.9h8.9l2.4-6.1c7,5.9,14.8,8.5,25.4,8.5c18.5,0,29.7-9.6,29.7-25.4
				c0-9.3-4.1-15.6-12.1-19.1c-4.9-2-7.8-2.7-22.7-5.9c-11.7-2.4-15.5-4.6-15.5-9.6c0-6,6.1-10.3,14.5-10.3
				c12.5,0,20.7,7.2,22.3,19.7h10.5V48.7L205.8,48.7z"/>
			<path class="st5" d="M237.3,70.2h-25.4v9.1h4.6c3,0,4.1,1.4,4.1,5.1v48.1c0,3.7-1,5.1-4.1,5.1h-4.6v9.2h34.9v-9.2h-5.4
				c-3,0-4.1-1.4-4.1-5.1v-13.2c4.4,4.6,9.2,6.7,15.6,6.7c15.3,0,23.6-10.8,23.6-30.5c0-16.8-8.4-27-22.3-27
				c-7.5,0-12.5,2.5-17.2,8.2L237.3,70.2L237.3,70.2z M248.1,79.1c6.8,0,10.5,6.2,10.5,17.5c0,12.4-3.7,19.1-10.7,19.1
				c-7.2,0-10.8-5.9-10.8-17.8C237,85.8,241,79.1,248.1,79.1L248.1,79.1z"/>
			<path class="st5" d="M335.5,104.2v6.4c0,3.7-0.7,5.1-2.6,5.1c-1.6,0-2.3-1-2.3-3.8V86.8c0-13.1-7.2-18.3-25.2-18.3
				c-14.8,0-22.8,5.1-22.8,14.5c0,5.4,4,9.5,9.2,9.5c4.9,0,8.2-3.4,8.2-8c0-3-1.7-5-5.2-6.4c2.3-1.1,3.5-1.4,6.6-1.4
				c8.1,0,12.8,3,12.8,8.6c0,4.6-2.4,6.7-10.5,8.5l-2.3,0.5l-2.1,0.5l-2.1,0.6c-2.9,0.7-5.4,1.4-7.2,2c-6,2-9.3,7-9.3,13.9
				c0,9.3,6.2,14.9,16.4,14.9c7.1,0,13-2.8,17.5-8.2c2.5,5.8,6.7,8.2,14.3,8.2c9.7,0,14.2-4.9,14.2-15.4v-6.4H335.5L335.5,104.2z
				 M314,107.2c0,4.3-4.9,8.2-10.1,8.2c-4,0-6.4-2.5-6.4-6.3c0-3.8,1.5-5.3,7.2-7.1c1.7-0.5,2.8-0.9,9.3-3.2V107.2L314,107.2z"/>
			<path class="st4" d="M371.9,70.2h-25.9v9.1h5.1c3.1,0,4.1,1.4,4.1,5.1v25.4c0,3.7-1,5.1-4.1,5.1h-5.1v9.2h36.4v-9.2h-6.6
				c-2.9,0-4-1.4-4-5.1V96.4c0-11.6,4.3-19.7,10.5-19.7c-2.3,2.9-2.9,4.5-2.9,6.6c0,4.6,3.5,8.1,8,8.1c5.8,0,9.4-4,9.4-10.4
				c0-7.1-4.6-12.1-11.2-12.1c-5.8,0-8.9,1.9-14.3,9.3L371.9,70.2L371.9,70.2z"/>
			<path class="st5" d="M453.9,48.7h-26v9.1h4.9c3,0,4.1,1.4,4.1,5.1v13.2c-5.2-5.8-9.3-7.7-15.6-7.7c-13.9,0-23.6,12.4-23.6,30.2
				c0,16.5,9.3,27.3,23.4,27.3c7.1,0,12.7-2.6,17.1-8.1v6.2h24.4v-9.2H458c-3.1,0-4.1-1.4-4.1-5.1V48.7L453.9,48.7z M426.9,79.5
				c7,0,11.1,6.7,11.1,18c0,11.5-4.5,19-11.6,19c-7.1,0-10.8-6.3-10.8-18C415.5,86.6,419.8,79.5,426.9,79.5L426.9,79.5z"/>
			<path class="st5" d="M521.3,104.2v6.4c0,3.7-0.7,5.1-2.6,5.1c-1.6,0-2.3-1-2.3-3.8V86.8c0-13.1-7.2-18.3-25.2-18.3
				c-14.8,0-22.8,5.1-22.8,14.5c0,5.4,4,9.5,9.2,9.5c4.9,0,8.2-3.4,8.2-8c0-3-1.7-5-5.2-6.4c2.3-1.1,3.5-1.4,6.6-1.4
				c8.1,0,12.8,3,12.8,8.6c0,4.6-2.4,6.7-10.5,8.5l-2.3,0.5l-2.1,0.5l-2.1,0.6c-2.9,0.7-5.4,1.4-7.2,2c-6,2-9.3,7-9.3,13.9
				c0,9.3,6.2,14.9,16.4,14.9c7.1,0,13-2.8,17.5-8.2c2.5,5.8,6.7,8.2,14.3,8.2c9.7,0,14.2-4.9,14.2-15.4v-6.4H521.3L521.3,104.2z
				 M499.7,107.2c0,4.3-4.9,8.2-10.1,8.2c-4,0-6.4-2.5-6.4-6.3c0-3.8,1.5-5.3,7.2-7.1c1.7-0.5,2.8-0.9,9.3-3.2V107.2L499.7,107.2z"
				/>
			<polygon class="st4" points="533.6,89.5 533.6,103.6 566.5,103.6 566.5,89.5 533.6,89.5 			"/>
			<path class="st5" d="M568.1,48.7V58h5.9c4.5,0,6.1,1.5,6.1,5.3v46.2c0,3.8-1.6,5.3-6.1,5.3h-5.9v9.3h51.4
				c17.1,0,27.7-8,27.7-20.8c0-10.1-5.8-16.3-17.3-18.8c10.8-3.8,15.2-8.7,15.2-16.7c0-12.4-9-19.1-26-19.1H568.1L568.1,48.7z
				 M598.7,80.6V58.4h12.7c10.4,0,14.2,2.9,14.2,11c0,7.8-4.3,11.2-14.5,11.2H598.7L598.7,80.6z M598.7,114.8V90.3h14.6
				c8.9,0,13.6,4.2,13.6,12.1c0,8.6-4.4,12.4-14.5,12.4H598.7L598.7,114.8z"/>
			<path class="st5" d="M705.1,104.2v6.4c0,3.7-0.7,5.1-2.6,5.1c-1.6,0-2.3-1-2.3-3.8V86.8c0-13.1-7.2-18.3-25.2-18.3
				c-14.8,0-22.8,5.1-22.8,14.5c0,5.4,4,9.5,9.1,9.5c4.9,0,8.2-3.4,8.2-8c0-3-1.7-5-5.2-6.4c2.3-1.1,3.5-1.4,6.6-1.4
				c8.1,0,12.8,3,12.8,8.6c0,4.6-2.4,6.7-10.5,8.5l-2.3,0.5l-2.1,0.5l-2.2,0.6c-2.9,0.7-5.4,1.4-7.2,2c-6,2-9.3,7-9.3,13.9
				c0,9.3,6.2,14.9,16.4,14.9c7.1,0,13-2.8,17.5-8.2c2.5,5.8,6.7,8.2,14.4,8.2c9.7,0,14.2-4.9,14.2-15.4v-6.4H705.1L705.1,104.2z
				 M683.5,107.2c0,4.3-4.9,8.2-10.1,8.2c-4,0-6.4-2.5-6.4-6.3c0-3.8,1.5-5.3,7.2-7.1c1.7-0.5,2.8-0.9,9.3-3.2V107.2L683.5,107.2z"
				/>
			<path class="st4" d="M739.9,70.2h-24.5v9.1h4.5c3,0,4.1,1.4,4.1,5.1v25.4c0,3.7-1,5.1-4.1,5.1h-4.5v9.2h32.2v-9.2h-2.8
				c-3,0-4.1-1.4-4.1-5.1V92.8c0-9.4,3.3-13.6,10.6-13.6c5.9,0,8.1,3,8.1,10.8v19.8c0,3.7-1,5.1-4.1,5.1h-3v9.2h32.8v-9.2h-4.7
				c-3.2,0-4.2-1.4-4.2-5.1V84.5c0-10.1-6.7-16-17.8-16c-7.7,0-12.2,2.4-18.8,9.8L739.9,70.2L739.9,70.2z"/>
			<path class="st4" d="M814.4,48.7h-25.6v9.1h4.9c3,0,4.1,1.4,4.1,5.1v46.9c0,3.7-1,5.1-4.1,5.1h-4.9v9.2h31.6v-9.2h-1.8
				c-3.2,0-4.2-1.2-4.2-5.1v-5.4l7-5.2l8.7,12.4c0.3,0.5,0.8,1.5,0.8,1.8c0,1-0.9,1.5-2.9,1.5h-2.8v9.2h32.5v-9h-2.3
				c-1.9,0-2.8-0.7-5.9-4.9l-14.8-20.8l8.8-6.7c3.6-2.6,5.8-3.4,9.8-3.4h4.3v-9.1h-34.7v9.1h5.3c2.1,0,2.6,0.2,2.6,1.4
				c0,0.6-0.6,1.5-1.5,2l-15,11.1V48.7L814.4,48.7z"/>
		</g>
	</g>
</g>
</svg>
